<svg width="32" height="32" viewBox="0 0 32 32" fill="none" xmlns="http://www.w3.org/2000/svg">
<circle cx="16" cy="16" r="16" fill="white"/>
<path d="M18.88 16C18.88 16.5696 18.7111 17.1264 18.3946 17.6C18.0782 18.0737 17.6284 18.4428 17.1021 18.6608C16.5759 18.8788 15.9968 18.9358 15.4381 18.8247C14.8795 18.7135 14.3663 18.4392 13.9635 18.0365C13.5608 17.6337 13.2865 17.1205 13.1753 16.5619C13.0642 16.0032 13.1212 15.4241 13.3392 14.8979C13.5572 14.3716 13.9263 13.9218 14.4 13.6054C14.8736 13.2889 15.4304 13.12 16 13.12C16.7636 13.1209 17.4956 13.4246 18.0355 13.9645C18.5754 14.5044 18.8791 15.2364 18.88 16ZM25 12.04V19.96C24.9985 21.2962 24.467 22.5773 23.5221 23.5221C22.5773 24.467 21.2962 24.9985 19.96 25H12.04C10.7038 24.9985 9.42271 24.467 8.47785 23.5221C7.533 22.5773 7.00151 21.2962 7 19.96V12.04C7.00151 10.7038 7.533 9.42271 8.47785 8.47785C9.42271 7.533 10.7038 7.00151 12.04 7H19.96C21.2962 7.00151 22.5773 7.533 23.5221 8.47785C24.467 9.42271 24.9985 10.7038 25 12.04V12.04ZM20.32 16C20.32 15.1456 20.0666 14.3104 19.5919 13.5999C19.1173 12.8895 18.4426 12.3358 17.6532 12.0088C16.8638 11.6819 15.9952 11.5963 15.1572 11.763C14.3192 11.9297 13.5495 12.3411 12.9453 12.9453C12.3411 13.5495 11.9297 14.3192 11.763 15.1572C11.5963 15.9952 11.6819 16.8638 12.0088 17.6532C12.3358 18.4426 12.8895 19.1173 13.5999 19.5919C14.3104 20.0666 15.1456 20.32 16 20.32C17.1453 20.3187 18.2434 19.8631 19.0533 19.0533C19.8631 18.2434 20.3187 17.1453 20.32 16V16ZM21.76 11.32C21.76 11.1064 21.6967 10.8976 21.578 10.72C21.4593 10.5424 21.2906 10.404 21.0933 10.3222C20.896 10.2405 20.6788 10.2191 20.4693 10.2608C20.2598 10.3024 20.0674 10.4053 19.9163 10.5563C19.7653 10.7074 19.6624 10.8998 19.6208 11.1093C19.5791 11.3188 19.6005 11.536 19.6822 11.7333C19.764 11.9306 19.9024 12.0993 20.08 12.218C20.2576 12.3367 20.4664 12.4 20.68 12.4C20.9664 12.4 21.2411 12.2862 21.4437 12.0837C21.6462 11.8811 21.76 11.6064 21.76 11.32Z" fill="black"/>
</svg>
