<svg width="32" height="32" viewBox="0 0 32 32" fill="none" xmlns="http://www.w3.org/2000/svg">
<circle cx="16" cy="16" r="16" fill="white"/>
<path fill-rule="evenodd" clip-rule="evenodd" d="M11.9287 10.1576C11.9287 11.043 11.2545 11.7595 10.2003 11.7595C9.18707 11.7595 8.51291 11.043 8.53377 10.1576C8.51291 9.22912 9.18705 8.53345 10.2205 8.53345C11.2545 8.53345 11.9085 9.22912 11.9287 10.1576ZM8.61854 23.3382V13.025H11.8237V23.3375H8.61854V23.3382Z" fill="black"/>
<path fill-rule="evenodd" clip-rule="evenodd" d="M14.3928 16.3163C14.3928 15.0299 14.3505 13.9333 14.3081 13.0264H17.0921L17.2401 14.4392H17.3033C17.7252 13.7853 18.7794 12.7949 20.4876 12.7949C22.5962 12.7949 24.1779 14.1869 24.1779 17.2226V23.3395H20.9727V17.6242C20.9727 16.2948 20.5092 15.3885 19.3493 15.3885C18.4632 15.3885 17.9364 16.0001 17.7258 16.5901C17.6411 16.8014 17.5993 17.0961 17.5993 17.3921V23.3395H14.3941V16.3163H14.3928Z" fill="black"/>
</svg>
