<svg width="33" height="32" viewBox="0 0 33 32" fill="none" xmlns="http://www.w3.org/2000/svg">
<circle cx="16.8081" cy="16" r="16" fill="white"/>
<path fill-rule="evenodd" clip-rule="evenodd" d="M27.475 10.3804C26.7691 10.6939 26.0095 10.9051 25.2127 11.0005C26.0261 10.5128 26.6507 9.74104 26.9444 8.82143C26.1842 9.27324 25.3401 9.60026 24.4435 9.77752C23.7248 9.01214 22.7002 8.53345 21.5681 8.53345C19.3929 8.53345 17.6292 10.2972 17.6292 12.4724C17.6292 12.7808 17.6644 13.0816 17.7316 13.3702C14.4576 13.2064 11.5554 11.6379 9.61247 9.25468C9.27329 9.8364 9.07938 10.5128 9.07938 11.2347C9.07938 12.601 9.77374 13.8067 10.8316 14.5132C10.1852 14.4927 9.57855 14.3155 9.04674 14.0204V14.0697C9.04674 15.9787 10.4054 17.5703 12.2062 17.9331C11.876 18.0227 11.5279 18.0714 11.1688 18.0714C10.9148 18.0714 10.6678 18.0464 10.4271 18.0003C10.9282 19.565 12.3835 20.7042 14.1069 20.7362C12.7591 21.7921 11.0607 22.4224 9.21505 22.4224C8.89635 22.4224 8.58278 22.4039 8.27496 22.3668C10.0182 23.4841 12.0885 24.1369 14.313 24.1369C21.5579 24.1369 25.5199 18.1347 25.5199 12.93C25.5199 12.7591 25.5167 12.5889 25.5084 12.4206C26.2789 11.8638 26.947 11.1701 27.475 10.3804Z" fill="black"/>
</svg>
